<?xml version="1.0" encoding="utf-8"?>
<!-- Generator: Adobe Illustrator 22.0.1, SVG Export Plug-In . SVG Version: 6.00 Build 0)  -->
<svg version="1.1" id="Layer_1" xmlns="http://www.w3.org/2000/svg" xmlns:xlink="http://www.w3.org/1999/xlink" x="0px" y="0px"
	 viewBox="0 0 1080 184.4" style="enable-background:new 0 0 1080 184.4;" xml:space="preserve">
<style type="text/css">
	.st0{fill:#6222D1;}
</style>
<g>
	<path class="st0" d="M149.7,79.6h-25.2V45.8h-21.8v96.1h21.8v24.6H42.9v-24.6h21.8V45.8H42.9v33.8H17.6V21.2h132V79.6z"/>
	<path class="st0" d="M233.1,166.5h-71.3v-23.3h18.8V88.6h-17.1V65.3H210V91h0.4c6-17.5,18.6-27.2,35.3-27.2h4.7v30.6h-3.9
		c-26.1,0-33.2,17.5-33.2,38.1v10.7h19.7V166.5z"/>
	<path class="st0" d="M366.6,144c-10.5,16.3-27.6,24.8-49.6,24.8c-35.1,0-57.1-19.7-57.1-51.1c0-31.7,22.9-54.8,54.6-54.8
		c30.4,0,54.8,23.3,52.2,59.7h-74c0.2,11.6,6.4,25.2,24.8,25.2c8.6,0,14.1-2.8,23.5-11.8L366.6,144z M334.7,104.6
		c-1.7-12.8-9.6-20.5-21.4-20.5c-11.8,0-18.8,6.6-20.8,20.5H334.7z"/>
	<path class="st0" d="M382.2,65.3h48.4v9.4c10.5-7.7,18.8-10.9,29.1-10.9c13.5,0,30.8,7.3,30.8,34.5v44.9h14.8v23.3h-47.5v-64.2
		c0-8.1-3.4-11.3-9.4-11.3c-5.6,0-11.8,2.4-17.8,6.6v45.6h13.5v23.3h-61.8v-23.3h15.6V88.6h-15.6V65.3z"/>
	<path class="st0" d="M637.9,166.5h-48.4v-12c-9.8,9.6-18.4,13.5-29.3,13.5c-24.8,0-43.7-22.7-43.7-52.6c0-29.5,19-52.4,43.9-52.4
		c11.3,0,21.6,4.9,29.1,13.5V44.5H574V21.2h48.4v122h15.6V166.5z M569.5,89.5c-12.2,0-19.7,10.1-19.7,26.5c0,16.3,7.7,27,19.9,27
		c10.1,0,20.3-7.9,20.3-27.6C590,100.2,582.3,89.5,569.5,89.5z"/>
	<path class="st0" d="M682.4,16.7h77.2l-3.2,15.8h-60.6L685,83.7h56.5l-3.2,15.8h-56.5l-14.1,67h-17.1L682.4,16.7z"/>
	<path class="st0" d="M830.5,156c-5,4.3-10.9,7.5-17.7,9.7c-6.8,2.2-13.6,3.3-20.4,3.3c-11.4,0-20-3.3-25.8-9.8
		c-5.8-6.6-8.7-15.7-8.7-27.4c0-11.7,1.6-22.2,4.9-31.5c3.3-9.3,7.6-17.1,12.9-23.5c5.3-6.4,11.4-11.3,18.2-14.8
		c6.8-3.4,13.7-5.1,20.9-5.1c5.1,0,9.6,0.7,13.4,2.1c3.8,1.4,6.9,3.3,9.3,5.7c2.4,2.4,4.2,5.1,5.3,8.1c1.1,3.1,1.7,6.3,1.7,9.7
		c0,10.1-4.9,18.1-14.8,23.9c-9.8,5.8-24.2,8.7-43,8.7c-1.7,0-3.5,0-5.3-0.1c-1.9-0.1-3.8-0.2-5.8-0.3c-0.6,2.7-1,5.3-1.3,7.7
		c-0.3,2.4-0.4,4.6-0.4,6.4c0,7.8,1.8,14.2,5.3,19.2c3.6,4.9,9.1,7.4,16.7,7.4c6.3,0,12-1,17.2-3.1c5.2-2.1,9.2-4.2,12.1-6.5
		L830.5,156z M812.3,70.6c-7.8,0-14.7,2.7-20.4,8c-5.8,5.3-10.2,13.4-13.2,24.1c5.4,0,11.1-0.1,16.9-0.4c5.8-0.3,11.2-1,15.9-2.2
		c4.8-1.2,8.7-3.1,11.9-5.8c3.1-2.6,4.7-6.3,4.7-11c0-1.4-0.3-2.9-0.7-4.4c-0.5-1.5-1.3-2.9-2.5-4.1c-1.1-1.2-2.7-2.2-4.8-3
		C818,71,815.4,70.6,812.3,70.6z"/>
	<path class="st0" d="M929.6,156c-5,4.3-10.9,7.5-17.7,9.7c-6.8,2.2-13.6,3.3-20.4,3.3c-11.4,0-20-3.3-25.8-9.8
		c-5.8-6.6-8.7-15.7-8.7-27.4c0-11.7,1.6-22.2,4.9-31.5c3.3-9.3,7.6-17.1,12.9-23.5s11.4-11.3,18.2-14.8c6.8-3.4,13.7-5.1,20.9-5.1
		c5.1,0,9.6,0.7,13.4,2.1c3.8,1.4,6.9,3.3,9.3,5.7c2.4,2.4,4.2,5.1,5.3,8.1c1.1,3.1,1.7,6.3,1.7,9.7c0,10.1-4.9,18.1-14.8,23.9
		c-9.8,5.8-24.2,8.7-43,8.7c-1.7,0-3.5,0-5.3-0.1c-1.9-0.1-3.8-0.2-5.8-0.3c-0.6,2.7-1,5.3-1.3,7.7c-0.3,2.4-0.4,4.6-0.4,6.4
		c0,7.8,1.8,14.2,5.3,19.2c3.6,4.9,9.1,7.4,16.7,7.4c6.3,0,12-1,17.2-3.1c5.2-2.1,9.2-4.2,12.1-6.5L929.6,156z M911.4,70.6
		c-7.8,0-14.7,2.7-20.4,8c-5.8,5.3-10.2,13.4-13.2,24.1c5.4,0,11.1-0.1,16.9-0.4c5.8-0.3,11.2-1,15.9-2.2c4.8-1.2,8.7-3.1,11.9-5.8
		c3.1-2.6,4.7-6.3,4.7-11c0-1.4-0.3-2.9-0.7-4.4c-0.5-1.5-1.3-2.9-2.5-4.1c-1.1-1.2-2.7-2.2-4.8-3C917.1,71,914.5,70.6,911.4,70.6z"
		/>
	<path class="st0" d="M1035,129.7c-1.1,5.6-2,10.8-2.6,15.6c-0.6,4.9-0.9,9.3-0.9,13.5c0,1.6,0,3,0.1,4.3c0.1,1.3,0.2,2.6,0.3,3.9
		h-10.7l-3-18.6h-0.9c-1.7,2.4-3.9,4.9-6.4,7.4c-2.6,2.5-5.4,4.7-8.6,6.7c-3.1,2-6.5,3.6-10,4.8c-3.5,1.2-7.1,1.8-10.8,1.8
		c-7.8,0-14.1-2.9-18.7-8.7c-4.6-5.8-7-14.9-7-27.5c0-8.4,1.2-17.1,3.6-26c2.4-8.9,6-17,10.7-24.3c4.7-7.3,10.6-13.3,17.7-18
		c7.1-4.7,15.2-7.1,24.5-7.1c2.6,0,4.8,0.1,6.6,0.2c1.9,0.1,3.6,0.4,5.2,0.6c1.6,0.3,3.2,0.7,4.6,1.2c1.4,0.5,2.9,1,4.5,1.6
		l9.4-44.5h16L1035,129.7z M987.7,155.4c3,0,6.1-0.8,9.2-2.5c3.1-1.6,6.1-3.7,8.9-6.1c2.8-2.4,5.3-5,7.5-7.8c2.2-2.8,4-5.4,5.2-7.8
		l12-55.6c-2.4-1.6-5.2-2.7-8.2-3.3c-3.1-0.6-7.1-1-12.1-1c-5.7,0-10.8,1.7-15.4,5.2c-4.6,3.5-8.5,8.2-11.7,14
		c-3.2,5.9-5.7,12.6-7.4,20.1c-1.7,7.6-2.6,15.3-2.6,23.3c0,5.9,1.1,10.9,3.4,15.1C978.9,153.3,982.6,155.4,987.7,155.4z"/>
</g>
</svg>
