<?xml version="1.0" standalone="no"?>
<!DOCTYPE svg PUBLIC "-//W3C//DTD SVG 20010904//EN"
 "http://www.w3.org/TR/2001/REC-SVG-20010904/DTD/svg10.dtd">
<svg version="1.0" xmlns="http://www.w3.org/2000/svg"
 width="561.000000pt" height="561.000000pt" viewBox="0 0 561.000000 561.000000"
 preserveAspectRatio="xMidYMid meet">
<metadata>
Created by potrace 1.11, written by Peter Selinger 2001-2013
</metadata>
<g transform="translate(0.000000,561.000000) scale(0.100000,-0.100000)"
fill="#000000" stroke="none">
<path d="M820 3605 l0 -505 218 2 217 3 3 288 2 287 185 0 185 0 0 -820 0
-820 -187 -2 -188 -3 -3 -212 -2 -213 705 0 705 0 -2 213 -3 212 -187 3 -188
2 0 820 0 820 185 0 185 0 2 -287 3 -288 218 -3 217 -2 0 505 0 505 -1135 0
-1135 0 0 -505z"/>
<path d="M3580 4104 c0 -8 -520 -2454 -526 -2476 -5 -17 6 -18 139 -18 107 0
146 3 149 13 2 6 56 258 119 559 l114 548 473 0 c259 0 472 2 472 4 0 2 11 58
25 126 14 68 25 124 25 126 0 2 -212 4 -471 4 l-471 0 5 23 c8 30 177 828 177
833 0 2 227 4 504 4 472 0 505 1 510 18 9 27 46 213 46 228 0 12 -101 14 -645
14 -355 0 -645 -3 -645 -6z"/>
</g>
</svg>
